<svg width="217" height="78" viewBox="0 0 217 78" fill="none" xmlns="http://www.w3.org/2000/svg">
<g filter="url(#filter0_d_168_97)">
<path d="M25.7888 52.002L36.6049 27.3719H43.4057L54.3155 51.7365L64.3659 19.8996H76.1036L76.0802 19.9673C73.5792 21.1982 71.3669 22.8298 69.4446 24.8641C67.1391 27.2399 65.3458 30.0655 64.065 33.3401C62.7842 36.6147 62.1442 40.2425 62.1442 44.2233C62.1442 48.1851 62.8274 51.7947 64.1947 55.0515L59.4283 69.1216H51.417L39.6954 41.7283L28.5936 69.1216H20.4887L4 19.8996L15.7377 19.8064L25.7888 52.002Z" fill="#F3F3F3"/>
<path fill-rule="evenodd" clip-rule="evenodd" d="M128.646 26.2521C128.677 26.2126 128.708 26.1727 128.739 26.1334C129.794 24.7646 131.128 23.5509 132.742 22.4932C134.355 21.3732 136.124 20.5024 138.048 19.8802C139.972 19.1957 141.958 18.8536 144.006 18.8536C148.35 18.8536 152.198 19.9736 155.549 22.2136C158.963 24.3913 161.631 27.4091 163.555 31.2669C165.541 35.0624 166.534 39.4489 166.534 44.4265C166.534 49.342 165.572 53.7289 163.648 57.5867C161.724 61.4445 159.056 64.4932 155.642 66.7332C152.291 68.911 148.505 70 144.285 70C142.113 70 140.003 69.6888 137.955 69.0666C135.907 68.3822 134.014 67.4798 132.276 66.3598C130.759 65.3454 129.471 64.2284 128.412 63.0099L128.274 68.787H117.289V0H128.646V26.2521ZM141.958 28.9335C139.227 28.9335 136.838 29.5868 134.79 30.8934C132.742 32.2 131.128 34.0354 129.949 36.3997C128.77 38.7019 128.18 41.3777 128.18 44.4265C128.18 47.4131 128.77 50.0888 129.949 52.4532C131.128 54.7554 132.742 56.5913 134.79 57.9602C136.838 59.2668 139.227 59.9201 141.958 59.9201C144.564 59.9201 146.892 59.2668 148.94 57.9602C150.988 56.5913 152.601 54.7555 153.78 52.4532C154.96 50.0888 155.549 47.4131 155.549 44.4265C155.549 41.5683 155.031 39.0382 153.995 36.8362L153.566 35.9632C152.464 33.8084 150.953 32.1185 149.033 30.8934C146.985 29.5868 144.626 28.9335 141.958 28.9335Z" fill="#F3F3F3"/>
<path d="M188.337 35.9062L198.105 19.8802H211.604L194.422 44.2039L213 69.0666H199.223L187.027 52.5478L175.763 69.0666H162.358L180.897 44.2535L162.451 19.8802H176.508L188.337 35.9062Z" fill="#F3F3F3"/>
<path d="M113.494 50.9388C114.101 48.7905 114.427 46.5239 114.431 44.1813C114.432 43.7017 114.419 43.2253 114.393 42.7524C113.676 29.6653 102.876 19.2642 89.639 19.2422C75.9239 19.2194 64.787 30.3482 64.7643 44.0989C64.7416 57.8496 75.8417 69.0155 89.5568 69.0383C90.1373 69.0392 90.7132 69.0202 91.2839 68.9819L91.3012 58.4936C90.891 58.5282 90.476 58.5455 90.0568 58.5448C82.1225 58.5316 75.7012 52.0719 75.7143 44.117C75.7275 36.1622 82.1701 29.7242 90.1043 29.7373C97.5577 29.7496 103.676 35.4504 104.379 42.7357L92.6146 42.7162L88.6254 50.8972L113.494 50.9388Z" fill="#F3F3F3"/>
<path d="M101.729 69.0383C98.5075 69.0383 95.8961 66.4201 95.8961 63.1904C95.8961 59.9607 98.5075 57.3425 101.729 57.3425C104.95 57.3425 107.562 59.9607 107.562 63.1904C107.562 66.4201 104.95 69.0383 101.729 69.0383Z" fill="#F3F3F3"/>
</g>
<defs>
<filter id="filter0_d_168_97" x="0" y="0" width="217" height="78" filterUnits="userSpaceOnUse" color-interpolation-filters="sRGB">
<feFlood flood-opacity="0" result="BackgroundImageFix"/>
<feColorMatrix in="SourceAlpha" type="matrix" values="0 0 0 0 0 0 0 0 0 0 0 0 0 0 0 0 0 0 127 0" result="hardAlpha"/>
<feOffset dy="4"/>
<feGaussianBlur stdDeviation="2"/>
<feComposite in2="hardAlpha" operator="out"/>
<feColorMatrix type="matrix" values="0 0 0 0 0 0 0 0 0 0 0 0 0 0 0 0 0 0 0.25 0"/>
<feBlend mode="normal" in2="BackgroundImageFix" result="effect1_dropShadow_168_97"/>
<feBlend mode="normal" in="SourceGraphic" in2="effect1_dropShadow_168_97" result="shape"/>
</filter>
</defs>
</svg>
